<mxfile host="Electron" agent="Mozilla/5.0 (Windows NT 10.0; Win64; x64) AppleWebKit/537.36 (KHTML, like Gecko) draw.io/24.7.5 Chrome/126.0.6478.183 Electron/31.3.0 Safari/537.36" version="24.7.5">
  <diagram name="第 1 页" id="bXmJrYsY5OxL_odkqC0j">
    <mxGraphModel dx="818" dy="560" grid="1" gridSize="10" guides="1" tooltips="1" connect="1" arrows="1" fold="1" page="1" pageScale="1" pageWidth="827" pageHeight="1169" math="0" shadow="0">
      <root>
        <mxCell id="0" />
        <mxCell id="1" parent="0" />
        <mxCell id="QdI-jfpFDAnaxA6K8m4K-1" style="edgeStyle=orthogonalEdgeStyle;rounded=0;orthogonalLoop=1;jettySize=auto;html=1;exitX=1;exitY=0.5;exitDx=0;exitDy=0;entryX=0;entryY=0.5;entryDx=0;entryDy=0;strokeWidth=2;" edge="1" parent="1" source="QdI-jfpFDAnaxA6K8m4K-2" target="QdI-jfpFDAnaxA6K8m4K-4">
          <mxGeometry relative="1" as="geometry" />
        </mxCell>
        <mxCell id="QdI-jfpFDAnaxA6K8m4K-2" value="&lt;font style=&quot;font-size: 14px;&quot;&gt;用户发起&lt;/font&gt;&lt;div&gt;&lt;font style=&quot;font-size: 14px;&quot;&gt;DELETE请求&lt;/font&gt;&lt;/div&gt;" style="rounded=1;whiteSpace=wrap;html=1;" vertex="1" parent="1">
          <mxGeometry x="90" y="250" width="110" height="60" as="geometry" />
        </mxCell>
        <mxCell id="QdI-jfpFDAnaxA6K8m4K-3" style="edgeStyle=orthogonalEdgeStyle;rounded=0;orthogonalLoop=1;jettySize=auto;html=1;exitX=1;exitY=0.5;exitDx=0;exitDy=0;entryX=0;entryY=0.5;entryDx=0;entryDy=0;strokeWidth=2;" edge="1" parent="1" source="QdI-jfpFDAnaxA6K8m4K-4" target="QdI-jfpFDAnaxA6K8m4K-6">
          <mxGeometry relative="1" as="geometry" />
        </mxCell>
        <mxCell id="QdI-jfpFDAnaxA6K8m4K-4" value="&lt;span style=&quot;font-size: 14px;&quot;&gt;请求失败&lt;/span&gt;" style="rounded=1;whiteSpace=wrap;html=1;" vertex="1" parent="1">
          <mxGeometry x="350" y="250" width="110" height="60" as="geometry" />
        </mxCell>
        <mxCell id="QdI-jfpFDAnaxA6K8m4K-5" value="网络问题或服务器故障" style="text;html=1;align=center;verticalAlign=middle;resizable=0;points=[];autosize=1;strokeColor=none;fillColor=none;" vertex="1" parent="1">
          <mxGeometry x="200" y="250" width="140" height="30" as="geometry" />
        </mxCell>
        <mxCell id="QdI-jfpFDAnaxA6K8m4K-6" value="&lt;font style=&quot;font-size: 14px;&quot;&gt;显示&lt;/font&gt;&lt;div&gt;&lt;font style=&quot;font-size: 14px;&quot;&gt;错误提示信息&lt;/font&gt;&lt;br&gt;&lt;/div&gt;" style="rounded=1;whiteSpace=wrap;html=1;" vertex="1" parent="1">
          <mxGeometry x="560" y="250" width="110" height="60" as="geometry" />
        </mxCell>
      </root>
    </mxGraphModel>
  </diagram>
</mxfile>
